{"title":"Kaskade - It's You It's Me (FLAC)","uid":10799119,"size":396429752,"categoryP":"audio","categoryS":"flac","magnet":"?xt=urn:btih:47ba5964171297d32853ab6e97c247ebccd37907&amp;dn=Kaskade+-+It%27s+You+It%27s+Me+%28FLAC%29&amp;tr=udp%3A%2F%2Ftracker.openbittorrent.com%3A80&amp;tr=udp%3A%2F%2Fopen.demonii.com%3A1337&amp;tr=udp%3A%2F%2Ftracker.coppersurfer.tk%3A6969&amp;tr=udp%3A%2F%2Fexodus.desync.com%3A6969","seeders":1,"leechers":0,"uploader":"Galdutro","files":19,"time":1408322488,"description":" &lt;a href=&quot;http://www.discogs.com/Kaskade-Its-You-Its-Me/release/139302&quot; rel=&quot;nofollow&quot; target=&quot;_NEW&quot;&gt;http://www.discogs.com/Kaskade-Its-You-Its-Me/release/139302&lt;/a&gt;\n\nKaskade - It's You, It's Me\nLabel:\tOM Records \nCatalog#:\tOM 120 \nFormat:\tCD, Album\nCountry:\tUS\nReleased:\tMar 2003\nGenre:\tElectronic \nStyle:\tFuture Jazz, Deep House \nCredits:\tVocals - Amy Michelle (tracks: 6, 9, 13) , Joslyn (tracks: 1, 2, 4, 7, 11) \nNotes:\t\nRating:\t 4.35/5 (26 votes) Rate It\n90 have this / 18 want this\n5 for sale in the Discogs Marketplace\n\n\n\nTracklisting:\n1\t \tMeditation To The Groove (6:57)\n2\t \tI Feel Like (5:48)\n3\t \tWhat I Say (Soft Shuffle Mix) (4:56)\n \t  Featuring - Rob Wannamaker \n4\t \tThis Rhythm (4:34)\n5\t \tMak Mop (1:17)\n6\t \tSeeing Julie (4:39)\n7\t \tIt's You, It's Me (4:55)\n8\t \tGet Busy (4:12)\n \t  Featuring - Rob Wannamaker \n9\t \tTonight (5:36)\n10\t \tCharlie's Plight (3:54)\n11\t \tMy Time (4:54)\n12\t \tCall Me Wise (5:30)\n13\t \tClose (5:39)\nX Lossless Decoder version 20080926 (93.3)\n\nXLD extraction logfile from 2008-12-14 20:17:37 -0800\n\nKaskade / It's You, It's Me\n\nUsed drive : PIONEER DVD-RW  DVR-109 (revision A912)\n\nUse cdparanoia mode     : YES (CDParanoia III 10.2 engine)\nDisable audio cache     : OK for the drive with cache less than 2750KB\nMake use of C2 pointers : NO\nRead offset correction  : 48\nMax retry count         : 100\n\nTOC of the extracted CD\n    Track |   Start  |  Length  | Start sector | End sector \n   ---------------------------------------------------------\n       1  | 00:00:00 | 06:57:46 |         0    |    31320   \n       2  | 06:57:46 | 05:48:10 |     31321    |    57430   \n       3  | 12:45:56 | 04:56:34 |     57431    |    79664   \n       4  | 17:42:15 | 04:34:26 |     79665    |   100240   \n       5  | 22:16:41 | 01:17:16 |    100241    |   106031   \n       6  | 23:33:57 | 04:39:64 |    106032    |   127020   \n       7  | 28:13:46 | 04:55:32 |    127021    |   149177   \n       8  | 33:09:03 | 04:12:66 |    149178    |   168143   \n       9  | 37:21:69 | 05:36:57 |    168144    |   193400   \n      10  | 42:58:51 | 03:54:33 |    193401    |   210983   \n      11  | 46:53:09 | 04:54:69 |    210984    |   233102   \n      12  | 51:48:03 | 05:30:51 |    233103    |   257903   \n      13  | 57:18:54 | 05:39:12 |    257904    |   283340   \n\n\nTrack 01\n   Filename : /Users/quinndo/Desktop/Flac export/01 Kaskade - Meditation to the Groove.flac\n\n   CRC32 hash (test run)  : 8F8386E0\n   CRC32 hash             : 8F8386E0\n   CRC32 hash (skip zero) : 8EBBFE28\n   AccurateRip signature  : A1F921D0\n       -&gt;Accurately ripped! (confidence 4)\n   Statistics\n       Read error                           : 0\n       Skipped (treated as error)           : 0\n       Edge jitter error (maybe fixed)      : 0\n       Atom jitter error (maybe fixed)      : 0\n       Drift error (maybe fixed)            : 0\n       Dropped bytes error (maybe fixed)    : 0\n       Duplicated bytes error (maybe fixed) : 0\n       Inconsistency in error sectors       : 0\n\nTrack 02\n   Filename : /Users/quinndo/Desktop/Flac export/02 Kaskade - I Feel I Like.flac\n\n   CRC32 hash (test run)  : DC617AEA\n   CRC32 hash             : DC617AEA\n   CRC32 hash (skip zero) : F6A08C47\n   AccurateRip signature  : 2FB6BB2E\n       -&gt;Accurately ripped! (confidence 4)\n   Statistics\n       Read error                           : 0\n       Skipped (treated as error)           : 0\n       Edge jitter error (maybe fixed)      : 0\n       Atom jitter error (maybe fixed)      : 0\n       Drift error (maybe fixed)            : 0\n       Dropped bytes error (maybe fixed)    : 0\n       Duplicated bytes error (maybe fixed) : 0\n       Inconsistency in error sectors       : 0\n\nTrack 03\n   Filename : /Users/quinndo/Desktop/Flac export/03 Kaskade - What I Say (Soft Shuffle Mix).flac\n\n   CRC32 hash (test run)  : 53AE5C23\n   CRC32 hash             : 53AE5C23\n   CRC32 hash (skip zero) : B37781D0\n   AccurateRip signature  : 83102011\n       -&gt;Accurately ripped! (confidence 4)\n   Statistics\n       Read error                           : 0\n       Skipped (treated as error)           : 0\n       Edge jitter error (maybe fixed)      : 0\n       Atom jitter error (maybe fixed)      : 0\n       Drift error (maybe fixed)            : 0\n       Dropped bytes error (maybe fixed)    : 0\n       Duplicated bytes error (maybe fixed) : 0\n       Inconsistency in error sectors       : 0\n\nTrack 04\n   Filename : /Users/quinndo/Desktop/Flac export/04 Kaskade - This Rhythm.flac\n\n   CRC32 hash (test run)  : B6E41BF0\n   CRC32 hash             : B6E41BF0\n   CRC32 hash (skip zero) : 9974F4E4\n   AccurateRip signature  : 77B5439A\n       -&gt;Accurately ripped! (confidence 4)\n   Statistics\n       Read error                           : 0\n       Skipped (treated as error)           : 0\n       Edge jitter error (maybe fixed)      : 0\n       Atom jitter error (maybe fixed)      : 0\n       Drift error (maybe fixed)            : 0\n       Dropped bytes error (maybe fixed)    : 0\n       Duplicated bytes error (maybe fixed) : 0\n       Inconsistency in error sectors       : 0\n\nTrack 05\n   Filename : /Users/quinndo/Desktop/Flac export/05 Kaskade - Mak Mop.flac\n\n   CRC32 hash (test run)  : D8D3B19E\n   CRC32 hash             : D8D3B19E\n   CRC32 hash (skip zero) : A1DD1C1A\n   AccurateRip signature  : DD1551A1\n       -&gt;Accurately ripped! (confidence 4)\n   Statistics\n       Read error                           : 0\n       Skipped (treated as error)           : 0\n       Edge jitter error (maybe fixed)      : 0\n       Atom jitter error (maybe fixed)      : 0\n       Drift error (maybe fixed)            : 0\n       Dropped bytes error (maybe fixed)    : 0\n       Duplicated bytes error (maybe fixed) : 0\n       Inconsistency in error sectors       : 0\n\nTrack 06\n   Filename : /Users/quinndo/Desktop/Flac export/06 Kaskade - Seeing Julie.flac\n\n   CRC32 hash (test run)  : 9405D559\n   CRC32 hash             : 9405D559\n   CRC32 hash (skip zero) : A5B6FC62\n   AccurateRip signature  : D80C7992\n       -&gt;Accurately ripped! (confidence 4)\n   Statistics\n       Read error                           : 0\n       Skipped (treated as error)           : 0\n       Edge jitter error (maybe fixed)      : 0\n       Atom jitter error (maybe fixed)      : 0\n       Drift error (maybe fixed)            : 0\n       Dropped bytes error (maybe fixed)    : 0\n       Duplicated bytes error (maybe fixed) : 0\n       Inconsistency in error sectors       : 0\n\nTrack 07\n   Filename : /Users/quinndo/Desktop/Flac export/07 Kaskade - It's You, It's Me.flac\n\n   CRC32 hash (test run)  : DB58D43F\n   CRC32 hash             : DB58D43F\n   CRC32 hash (skip zero) : 79121DFD\n   AccurateRip signature  : A1494EA2\n       -&gt;Accurately ripped! (confidence 4)\n   Statistics\n       Read error                           : 0\n       Skipped (treated as error)           : 0\n       Edge jitter error (maybe fixed)      : 0\n       Atom jitter error (maybe fixed)      : 0\n       Drift error (maybe fixed)            : 0\n       Dropped bytes error (maybe fixed)    : 0\n       Duplicated bytes error (maybe fixed) : 0\n       Inconsistency in error sectors       : 0\n\nTrack 08\n   Filename : /Users/quinndo/Desktop/Flac export/08 Kaskade - Get Busy.flac\n\n   CRC32 hash (test run)  : 8DA50762\n   CRC32 hash             : 8DA50762\n   CRC32 hash (skip zero) : 05E220AF\n   AccurateRip signature  : 97262B0C\n       -&gt;Accurately ripped! (confidence 4)\n   Statistics\n       Read error                           : 0\n       Skipped (treated as error)           : 0\n       Edge jitter error (maybe fixed)      : 0\n       Atom jitter error (maybe fixed)      : 0\n       Drift error (maybe fixed)            : 0\n       Dropped bytes error (maybe fixed)    : 0\n       Duplicated bytes error (maybe fixed) : 0\n       Inconsistency in error sectors       : 0\n\nTrack 09\n   Filename : /Users/quinndo/Desktop/Flac export/09 Kaskade - Tonight.flac\n\n   CRC32 hash (test run)  : B9EA9BB2\n   CRC32 hash             : B9EA9BB2\n   CRC32 hash (skip zero) : CD01C747\n   AccurateRip signature  : 98AEC6D7\n       -&gt;Accurately ripped! (confidence 4)\n   Statistics\n       Read error                           : 0\n       Skipped (treated as error)           : 0\n       Edge jitter error (maybe fixed)      : 0\n       Atom jitter error (maybe fixed)      : 0\n       Drift error (maybe fixed)            : 0\n       Dropped bytes error (maybe fixed)    : 0\n       Duplicated bytes error (maybe fixed) : 0\n       Inconsistency in error sectors       : 0\n\nTrack 10\n   Filename : /Users/quinndo/Desktop/Flac export/10 Kaskade - Charlie's Plight.flac\n\n   CRC32 hash (test run)  : 82741023\n   CRC32 hash             : 82741023\n   CRC32 hash (skip zero) : 97572E2A\n   AccurateRip signature  : 073B5BC8\n       -&gt;Accurately ripped! (confidence 4)\n   Statistics\n       Read error                           : 0\n       Skipped (treated as error)           : 0\n       Edge jitter error (maybe fixed)      : 0\n       Atom jitter error (maybe fixed)      : 0\n       Drift error (maybe fixed)            : 0\n       Dropped bytes error (maybe fixed)    : 0\n       Duplicated bytes error (maybe fixed) : 0\n       Inconsistency in error sectors       : 0\n\nTrack 11\n   Filename : /Users/quinndo/Desktop/Flac export/11 Kaskade - My Time.flac\n\n   CRC32 hash (test run)  : 0BBDDA43\n   CRC32 hash             : 0BBDDA43\n   CRC32 hash (skip zero) : B3C6E280\n   AccurateRip signature  : B8053D14\n       -&gt;Accurately ripped! (confidence 4)\n   Statistics\n       Read error                           : 0\n       Skipped (treated as error)           : 0\n       Edge jitter error (maybe fixed)      : 0\n       Atom jitter error (maybe fixed)      : 0\n       Drift error (maybe fixed)            : 0\n       Dropped bytes error (maybe fixed)    : 0\n       Duplicated bytes error (maybe fixed) : 0\n       Inconsistency in error sectors       : 0\n\nTrack 12\n   Filename : /Users/quinndo/Desktop/Flac export/12 Kaskade - Call Me Wise.flac\n\n   CRC32 hash (test run)  : 03D7FAEB\n   CRC32 hash             : 03D7FAEB\n   CRC32 hash (skip zero) : 8292A620\n   AccurateRip signature  : 98D68CC6\n       -&gt;Accurately ripped! (confidence 4)\n   Statistics\n       Read error                           : 0\n       Skipped (treated as error)           : 0\n       Edge jitter error (maybe fixed)      : 0\n       Atom jitter error (maybe fixed)      : 0\n       Drift error (maybe fixed)            : 0\n       Dropped bytes error (maybe fixed)    : 0\n       Duplicated bytes error (maybe fixed) : 0\n       Inconsistency in error sectors       : 0\n\nTrack 13\n   Filename : /Users/quinndo/Desktop/Flac export/13 Kaskade - Close.flac\n\n   CRC32 hash (test run)  : 85280448\n   CRC32 hash             : 85280448\n   CRC32 hash (skip zero) : 63FC2ABD\n   AccurateRip signature  : 6B01D4EE\n       -&gt;Accurately ripped! (confidence 4)\n   Statistics\n       Read error                           : 0\n       Skipped (treated as error)           : 0\n       Edge jitter error (maybe fixed)      : 0\n       Atom jitter error (maybe fixed)      : 0\n       Drift error (maybe fixed)            : 0\n       Dropped bytes error (maybe fixed)    : 0\n       Duplicated bytes error (maybe fixed) : 0\n       Inconsistency in error sectors       : 0\n\nNo errors occurred\n\nEnd of status report\n","torrent":{"xt":"urn:btih:47ba5964171297d32853ab6e97c247ebccd37907","amp;dn":"Kaskade+-+It%27s+You+It%27s+Me+%28FLAC%29","amp;tr":["udp%3A%2F%2Ftracker.openbittorrent.com%3A80","udp%3A%2F%2Fopen.demonii.com%3A1337","udp%3A%2F%2Ftracker.coppersurfer.tk%3A6969","udp%3A%2F%2Fexodus.desync.com%3A6969"],"infoHash":"47ba5964171297d32853ab6e97c247ebccd37907","infoHashBuffer":{"type":"Buffer","data":[71,186,89,100,23,18,151,211,40,83,171,110,151,194,71,235,204,211,121,7]},"announce":[],"urlList":[]}}